<?xml version="1.0" encoding="UTF-8"?>
<svg width="178px" height="33px" viewBox="0 0 178 33" version="1.1" xmlns="http://www.w3.org/2000/svg" xmlns:xlink="http://www.w3.org/1999/xlink">
    <!-- Generator: Sketch 61.2 (89653) - https://sketch.com -->
    <title>CrimoCraps</title>
    <desc>Created with Sketch.</desc>
    <g id="Credit-Calc-Design" stroke="none" stroke-width="1" fill="none" fill-rule="evenodd">
        <path d="M9.419,27.192 C10.867,27.192 12.121,26.958 13.181,26.49 C14.241,26.022 15.123,25.328 15.827,24.408 L15.827,24.408 L14.219,22.716 C14.131,22.628 14.039,22.566 13.943,22.53 C13.847,22.494 13.751,22.476 13.655,22.476 C13.535,22.476 13.419,22.502 13.307,22.554 C13.195,22.606 13.091,22.672 12.995,22.752 C12.755,22.96 12.517,23.134 12.281,23.274 C12.045,23.414 11.797,23.528 11.537,23.616 C11.277,23.704 10.995,23.766 10.691,23.802 C10.387,23.838 10.051,23.856 9.683,23.856 C9.043,23.856 8.443,23.732 7.883,23.484 C7.323,23.236 6.833,22.874 6.413,22.398 C5.993,21.922 5.661,21.336 5.417,20.64 C5.173,19.944 5.051,19.148 5.051,18.252 C5.051,17.396 5.173,16.624 5.417,15.936 C5.661,15.248 6.001,14.662 6.437,14.178 C6.873,13.694 7.395,13.322 8.003,13.062 C8.611,12.802 9.283,12.672 10.019,12.672 C10.443,12.672 10.813,12.704 11.129,12.768 C11.445,12.832 11.721,12.91 11.957,13.002 C12.193,13.094 12.397,13.194 12.569,13.302 C12.741,13.41 12.899,13.51 13.043,13.602 C13.187,13.694 13.323,13.772 13.451,13.836 C13.579,13.9 13.715,13.932 13.859,13.932 C14.075,13.932 14.243,13.886 14.363,13.794 C14.483,13.702 14.587,13.6 14.675,13.488 L14.675,13.488 L16.043,11.652 C15.715,11.308 15.339,10.994 14.915,10.71 C14.491,10.426 14.027,10.182 13.523,9.978 C13.019,9.774 12.477,9.614 11.897,9.498 C11.317,9.382 10.699,9.324 10.043,9.324 C8.691,9.324 7.455,9.544 6.335,9.984 C5.215,10.424 4.253,11.04 3.449,11.832 C2.645,12.624 2.019,13.566 1.571,14.658 C1.123,15.75 0.899,16.948 0.899,18.252 C0.899,19.532 1.095,20.718 1.487,21.81 C1.879,22.902 2.441,23.846 3.173,24.642 C3.905,25.438 4.797,26.062 5.849,26.514 C6.901,26.966 8.091,27.192 9.419,27.192 Z M22.895,27 L22.895,19.368 C23.455,18.328 24.223,17.808 25.199,17.808 C25.479,17.808 25.711,17.826 25.895,17.862 C26.079,17.898 26.239,17.916 26.375,17.916 C26.535,17.916 26.663,17.882 26.759,17.814 C26.855,17.746 26.919,17.628 26.951,17.46 L26.951,17.46 L27.431,14.724 C27.087,14.452 26.631,14.316 26.063,14.316 C25.391,14.316 24.771,14.52 24.203,14.928 C23.635,15.336 23.123,15.892 22.667,16.596 L22.667,16.596 L22.463,15.432 C22.431,15.272 22.393,15.136 22.349,15.024 C22.305,14.912 22.241,14.822 22.157,14.754 C22.073,14.686 21.969,14.636 21.845,14.604 C21.721,14.572 21.567,14.556 21.383,14.556 L21.383,14.556 L19.175,14.556 L19.175,27 L22.895,27 Z M32.579,13.308 C32.891,13.308 33.185,13.25 33.461,13.134 C33.737,13.018 33.979,12.862 34.187,12.666 C34.395,12.47 34.559,12.242 34.679,11.982 C34.799,11.722 34.859,11.444 34.859,11.148 C34.859,10.844 34.799,10.56 34.679,10.296 C34.559,10.032 34.395,9.8 34.187,9.6 C33.979,9.4 33.737,9.244 33.461,9.132 C33.185,9.02 32.891,8.964 32.579,8.964 C32.275,8.964 31.991,9.02 31.727,9.132 C31.463,9.244 31.229,9.4 31.025,9.6 C30.821,9.8 30.661,10.032 30.545,10.296 C30.429,10.56 30.371,10.844 30.371,11.148 C30.371,11.444 30.429,11.722 30.545,11.982 C30.661,12.242 30.821,12.47 31.025,12.666 C31.229,12.862 31.463,13.018 31.727,13.134 C31.991,13.25 32.275,13.308 32.579,13.308 Z M34.427,27 L34.427,14.556 L30.707,14.556 L30.707,27 L34.427,27 Z M42.647,27 L42.647,18 C42.911,17.744 43.193,17.54 43.493,17.388 C43.793,17.236 44.111,17.16 44.447,17.16 C44.991,17.16 45.403,17.304 45.683,17.592 C45.963,17.88 46.103,18.38 46.103,19.092 L46.103,19.092 L46.103,27 L49.823,27 L49.823,19.092 C49.823,18.468 49.989,17.99 50.321,17.658 C50.653,17.326 51.071,17.16 51.575,17.16 C52.679,17.16 53.231,17.804 53.231,19.092 L53.231,19.092 L53.231,27 L56.951,27 L56.951,19.092 C56.951,18.348 56.855,17.682 56.663,17.094 C56.471,16.506 56.189,16.01 55.817,15.606 C55.445,15.202 54.983,14.894 54.431,14.682 C53.879,14.47 53.247,14.364 52.535,14.364 C52.151,14.364 51.765,14.404 51.377,14.484 C50.989,14.564 50.621,14.688 50.273,14.856 C49.925,15.024 49.601,15.244 49.301,15.516 C49.001,15.788 48.747,16.116 48.539,16.5 C48.283,15.852 47.909,15.334 47.417,14.946 C46.925,14.558 46.303,14.364 45.551,14.364 C45.191,14.364 44.861,14.402 44.561,14.478 C44.261,14.554 43.981,14.658 43.721,14.79 C43.461,14.922 43.219,15.078 42.995,15.258 C42.771,15.438 42.555,15.636 42.347,15.852 L42.347,15.852 L42.143,15.18 C42.079,14.972 41.969,14.816 41.813,14.712 C41.657,14.608 41.463,14.556 41.231,14.556 L41.231,14.556 L38.927,14.556 L38.927,27 L42.647,27 Z M66.635,27.192 C67.579,27.192 68.439,27.042 69.215,26.742 C69.991,26.442 70.657,26.014 71.213,25.458 C71.769,24.902 72.201,24.226 72.509,23.43 C72.817,22.634 72.971,21.74 72.971,20.748 C72.971,19.764 72.817,18.878 72.509,18.09 C72.201,17.302 71.769,16.632 71.213,16.08 C70.657,15.528 69.991,15.104 69.215,14.808 C68.439,14.512 67.579,14.364 66.635,14.364 C65.683,14.364 64.817,14.512 64.037,14.808 C63.257,15.104 62.585,15.528 62.021,16.08 C61.457,16.632 61.021,17.302 60.713,18.09 C60.405,18.878 60.251,19.764 60.251,20.748 C60.251,21.74 60.405,22.634 60.713,23.43 C61.021,24.226 61.457,24.902 62.021,25.458 C62.585,26.014 63.257,26.442 64.037,26.742 C64.817,27.042 65.683,27.192 66.635,27.192 Z M66.635,24.432 C65.755,24.432 65.111,24.13 64.703,23.526 C64.295,22.922 64.091,22.004 64.091,20.772 C64.091,19.54 64.295,18.624 64.703,18.024 C65.111,17.424 65.755,17.124 66.635,17.124 C67.491,17.124 68.121,17.424 68.525,18.024 C68.929,18.624 69.131,19.54 69.131,20.772 C69.131,22.004 68.929,22.922 68.525,23.526 C68.121,24.13 67.491,24.432 66.635,24.432 Z M88.499,27.288 C90.671,27.288 92.552,26.937 94.142,26.235 C95.732,25.533 97.055,24.492 98.111,23.112 L98.111,23.112 L95.699,20.574 C95.567,20.442 95.429,20.349 95.285,20.295 C95.141,20.241 94.997,20.214 94.853,20.214 C94.673,20.214 94.499,20.253 94.331,20.331 C94.163,20.409 94.007,20.508 93.863,20.628 C93.503,20.94 93.146,21.201 92.792,21.411 C92.438,21.621 92.066,21.792 91.676,21.924 C91.286,22.056 90.863,22.149 90.407,22.203 C89.951,22.257 89.447,22.284 88.895,22.284 C87.935,22.284 87.035,22.098 86.195,21.726 C85.355,21.354 84.62,20.811 83.99,20.097 C83.36,19.383 82.862,18.504 82.496,17.46 C82.13,16.416 81.947,15.222 81.947,13.878 C81.947,12.594 82.13,11.436 82.496,10.404 C82.862,9.372 83.372,8.493 84.026,7.767 C84.68,7.041 85.463,6.483 86.375,6.093 C87.287,5.703 88.295,5.508 89.399,5.508 C90.035,5.508 90.59,5.556 91.064,5.652 C91.538,5.748 91.952,5.865 92.306,6.003 C92.66,6.141 92.966,6.291 93.224,6.453 C93.482,6.615 93.719,6.765 93.935,6.903 C94.151,7.041 94.355,7.158 94.547,7.254 C94.739,7.35 94.943,7.398 95.159,7.398 C95.483,7.398 95.735,7.329 95.915,7.191 C96.095,7.053 96.251,6.9 96.383,6.732 L96.383,6.732 L98.435,3.978 C97.943,3.462 97.379,2.991 96.743,2.565 C96.107,2.139 95.411,1.773 94.655,1.467 C93.899,1.161 93.086,0.921 92.216,0.747 C91.346,0.573 90.419,0.486 89.435,0.486 C87.407,0.486 85.553,0.816 83.873,1.476 C82.193,2.136 80.75,3.06 79.544,4.248 C78.338,5.436 77.399,6.849 76.727,8.487 C76.055,10.125 75.719,11.922 75.719,13.878 C75.719,15.798 76.013,17.577 76.601,19.215 C77.189,20.853 78.032,22.269 79.13,23.463 C80.228,24.657 81.566,25.593 83.144,26.271 C84.722,26.949 86.507,27.288 88.499,27.288 Z M108.713,27 L108.713,15.552 C109.553,13.992 110.705,13.212 112.169,13.212 C112.589,13.212 112.937,13.239 113.213,13.293 C113.489,13.347 113.729,13.374 113.933,13.374 C114.173,13.374 114.365,13.323 114.509,13.221 C114.653,13.119 114.749,12.942 114.797,12.69 L114.797,12.69 L115.517,8.586 C115.001,8.178 114.317,7.974 113.465,7.974 C112.457,7.974 111.527,8.28 110.675,8.892 C109.823,9.504 109.055,10.338 108.371,11.394 L108.371,11.394 L108.065,9.648 C108.017,9.408 107.96,9.204 107.894,9.036 C107.828,8.868 107.732,8.733 107.606,8.631 C107.48,8.529 107.324,8.454 107.138,8.406 C106.952,8.358 106.721,8.334 106.445,8.334 L106.445,8.334 L103.133,8.334 L103.133,27 L108.713,27 Z M124.607,27.288 C125.243,27.288 125.822,27.237 126.344,27.135 C126.866,27.033 127.358,26.877 127.82,26.667 C128.282,26.457 128.729,26.202 129.161,25.902 C129.593,25.602 130.043,25.254 130.511,24.858 L130.511,24.858 L130.907,25.884 C131.087,26.34 131.312,26.64 131.582,26.784 C131.852,26.928 132.251,27 132.779,27 L132.779,27 L135.335,27 L135.335,15.336 C135.335,14.268 135.167,13.284 134.831,12.384 C134.495,11.484 134.012,10.707 133.382,10.053 C132.752,9.399 131.984,8.889 131.078,8.523 C130.172,8.157 129.155,7.974 128.027,7.974 C126.455,7.974 124.982,8.217 123.608,8.703 C122.234,9.189 120.983,9.93 119.855,10.926 L119.855,10.926 L120.863,12.672 C121.019,12.948 121.232,13.179 121.502,13.365 C121.772,13.551 122.099,13.644 122.483,13.644 C122.915,13.644 123.287,13.572 123.599,13.428 C123.911,13.284 124.232,13.122 124.562,12.942 C124.892,12.762 125.267,12.6 125.687,12.456 C126.107,12.312 126.647,12.24 127.307,12.24 C128.135,12.24 128.774,12.483 129.224,12.969 C129.674,13.455 129.899,14.244 129.899,15.336 L129.899,15.336 L129.899,16.128 C127.763,16.176 125.993,16.392 124.589,16.776 C123.185,17.16 122.069,17.637 121.241,18.207 C120.413,18.777 119.831,19.41 119.495,20.106 C119.159,20.802 118.991,21.48 118.991,22.14 C118.991,22.98 119.123,23.721 119.387,24.363 C119.651,25.005 120.026,25.542 120.512,25.974 C120.998,26.406 121.589,26.733 122.285,26.955 C122.981,27.177 123.755,27.288 124.607,27.288 Z M126.371,23.598 C125.699,23.598 125.189,23.469 124.841,23.211 C124.493,22.953 124.319,22.506 124.319,21.87 C124.319,21.546 124.4,21.246 124.562,20.97 C124.724,20.694 125.015,20.448 125.435,20.232 C125.855,20.016 126.425,19.836 127.145,19.692 C127.865,19.548 128.783,19.452 129.899,19.404 L129.899,19.404 L129.899,21.996 C129.347,22.56 128.801,22.968 128.261,23.22 C127.721,23.472 127.091,23.598 126.371,23.598 Z M147.125,32.922 L147.125,25.758 C147.665,26.226 148.265,26.598 148.925,26.874 C149.585,27.15 150.401,27.288 151.373,27.288 C152.561,27.288 153.644,27.042 154.622,26.55 C155.6,26.058 156.44,25.374 157.142,24.498 C157.844,23.622 158.39,22.59 158.78,21.402 C159.17,20.214 159.365,18.918 159.365,17.514 C159.365,16.014 159.194,14.673 158.852,13.491 C158.51,12.309 158.039,11.31 157.439,10.494 C156.839,9.678 156.125,9.054 155.297,8.622 C154.469,8.19 153.569,7.974 152.597,7.974 C151.949,7.974 151.352,8.04 150.806,8.172 C150.26,8.304 149.75,8.487 149.276,8.721 C148.802,8.955 148.358,9.234 147.944,9.558 C147.53,9.882 147.143,10.242 146.783,10.638 L146.783,10.638 L146.369,9.27 C146.273,8.958 146.108,8.724 145.874,8.568 C145.64,8.412 145.349,8.334 145.001,8.334 L145.001,8.334 L141.545,8.334 L141.545,32.922 L147.125,32.922 Z M150.041,23.184 C149.501,23.184 148.985,23.091 148.493,22.905 C148.001,22.719 147.545,22.392 147.125,21.924 L147.125,21.924 L147.125,14.004 C147.365,13.716 147.605,13.461 147.845,13.239 C148.085,13.017 148.346,12.834 148.628,12.69 C148.91,12.546 149.216,12.435 149.546,12.357 C149.876,12.279 150.245,12.24 150.653,12.24 C151.097,12.24 151.499,12.33 151.859,12.51 C152.219,12.69 152.528,12.987 152.786,13.401 C153.044,13.815 153.245,14.358 153.389,15.03 C153.533,15.702 153.605,16.53 153.605,17.514 C153.605,18.546 153.515,19.422 153.335,20.142 C153.155,20.862 152.906,21.447 152.588,21.897 C152.27,22.347 151.895,22.674 151.463,22.878 C151.031,23.082 150.557,23.184 150.041,23.184 Z M169.535,27.288 C170.807,27.288 171.932,27.132 172.91,26.82 C173.888,26.508 174.71,26.07 175.376,25.506 C176.042,24.942 176.543,24.27 176.879,23.49 C177.215,22.71 177.383,21.858 177.383,20.934 C177.383,20.178 177.26,19.53 177.014,18.99 C176.768,18.45 176.441,17.991 176.033,17.613 C175.625,17.235 175.163,16.917 174.647,16.659 C174.131,16.401 173.603,16.176 173.063,15.984 C172.523,15.792 171.995,15.618 171.479,15.462 C170.963,15.306 170.501,15.141 170.093,14.967 C169.685,14.793 169.358,14.592 169.112,14.364 C168.866,14.136 168.743,13.848 168.743,13.5 C168.743,13.02 168.932,12.645 169.31,12.375 C169.688,12.105 170.231,11.97 170.939,11.97 C171.431,11.97 171.869,12.027 172.253,12.141 C172.637,12.255 172.982,12.378 173.288,12.51 C173.594,12.642 173.879,12.765 174.143,12.879 C174.407,12.993 174.671,13.05 174.935,13.05 C175.187,13.05 175.394,13.002 175.556,12.906 C175.718,12.81 175.871,12.648 176.015,12.42 L176.015,12.42 L177.275,10.458 C176.927,10.11 176.525,9.789 176.069,9.495 C175.613,9.201 175.109,8.946 174.557,8.73 C174.005,8.514 173.414,8.346 172.784,8.226 C172.154,8.106 171.503,8.046 170.831,8.046 C169.595,8.046 168.515,8.205 167.591,8.523 C166.667,8.841 165.899,9.27 165.287,9.81 C164.675,10.35 164.216,10.977 163.91,11.691 C163.604,12.405 163.451,13.158 163.451,13.95 C163.451,14.802 163.577,15.528 163.829,16.128 C164.081,16.728 164.411,17.235 164.819,17.649 C165.227,18.063 165.692,18.405 166.214,18.675 C166.736,18.945 167.267,19.176 167.807,19.368 C168.347,19.56 168.878,19.731 169.4,19.881 C169.922,20.031 170.387,20.193 170.795,20.367 C171.203,20.541 171.533,20.748 171.785,20.988 C172.037,21.228 172.163,21.534 172.163,21.906 C172.163,22.11 172.121,22.308 172.037,22.5 C171.953,22.692 171.821,22.866 171.641,23.022 C171.461,23.178 171.221,23.301 170.921,23.391 C170.621,23.481 170.255,23.526 169.823,23.526 C169.211,23.526 168.704,23.454 168.302,23.31 C167.9,23.166 167.549,23.01 167.249,22.842 C166.949,22.674 166.67,22.518 166.412,22.374 C166.154,22.23 165.863,22.158 165.539,22.158 C165.191,22.158 164.909,22.227 164.693,22.365 C164.477,22.503 164.291,22.692 164.135,22.932 L164.135,22.932 L162.839,24.984 C163.199,25.308 163.631,25.611 164.135,25.893 C164.639,26.175 165.188,26.418 165.782,26.622 C166.376,26.826 166.991,26.988 167.627,27.108 C168.263,27.228 168.899,27.288 169.535,27.288 Z" id="CrimoCraps" fill="#F8F8F8" fill-rule="nonzero"></path>
    </g>
</svg>