<?xml version="1.0" encoding="UTF-8"?>
<svg width="444px" height="59px" viewBox="0 0 444 59" version="1.1" xmlns="http://www.w3.org/2000/svg" xmlns:xlink="http://www.w3.org/1999/xlink">
    <!-- Generator: Sketch 61.2 (89653) - https://sketch.com -->
    <title>Group</title>
    <desc>Created with Sketch.</desc>
    <defs>
        <path d="M26.568,72.504 C29.448,72.504 32.292,72.06 35.1,71.172 C37.908,70.284 39.84,69.36 40.896,68.4 L40.896,68.4 L38.52,61.56 C34.584,63.96 30.504,65.16 26.28,65.16 C22.632,65.16 19.488,64.296 16.848,62.568 C14.208,60.84 12.204,58.488 10.836,55.512 C9.468,52.536 8.784,49.224 8.784,45.576 C8.784,41.592 9.552,38.088 11.088,35.064 C12.624,32.04 14.736,29.712 17.424,28.08 C20.112,26.448 23.112,25.632 26.424,25.632 C31.128,25.632 34.944,26.928 37.872,29.52 L37.872,29.52 L41.4,22.32 C40.968,21.888 40.08,21.348 38.736,20.7 C37.392,20.052 35.7,19.476 33.66,18.972 C31.62,18.468 29.424,18.216 27.072,18.216 C21.84,18.216 17.16,19.38 13.032,21.708 C8.904,24.036 5.7,27.264 3.42,31.392 C1.14,35.52 -2.27373675e-13,40.2 -2.27373675e-13,45.432 C-2.27373675e-13,50.376 1.056,54.9 3.168,59.004 C5.28,63.108 8.34,66.384 12.348,68.832 C16.356,71.28 21.096,72.504 26.568,72.504 Z M56.304,72 L56.304,55.008 C56.304,51.84 57.228,49.536 59.076,48.096 C60.924,46.656 62.976,45.936 65.232,45.936 C66.672,45.936 67.608,46.08 68.04,46.368 L68.04,46.368 L69.12,38.52 C68.544,38.232 67.488,38.088 65.952,38.088 C63.744,38.088 61.776,38.76 60.048,40.104 C58.32,41.448 57.072,43.224 56.304,45.432 L56.304,45.432 L56.304,38.952 L48.528,38.952 L48.528,72 L56.304,72 Z M90.216,72.72 C93.144,72.72 95.64,72.432 97.704,71.856 C99.768,71.28 101.4,70.608 102.6,69.84 L102.6,69.84 L100.224,64.296 C98.976,64.968 97.608,65.496 96.12,65.88 C94.632,66.264 92.736,66.456 90.432,66.456 C87.648,66.456 85.476,65.808 83.916,64.512 C82.356,63.216 81.312,61.104 80.784,58.176 L80.784,58.176 L104.544,58.176 C104.688,56.784 104.76,55.44 104.76,54.144 C104.76,49.056 103.524,45.108 101.052,42.3 C98.58,39.492 94.8,38.088 89.712,38.088 C86.448,38.088 83.52,38.796 80.928,40.212 C78.336,41.628 76.308,43.656 74.844,46.296 C73.38,48.936 72.648,52.008 72.648,55.512 C72.648,58.632 73.272,61.5 74.52,64.116 C75.768,66.732 77.712,68.82 80.352,70.38 C82.992,71.94 86.28,72.72 90.216,72.72 Z M97.2,52.776 L80.784,52.776 C81.552,47.352 84.456,44.64 89.496,44.64 C91.992,44.64 93.912,45.252 95.256,46.476 C96.6,47.7 97.248,49.8 97.2,52.776 L97.2,52.776 Z M127.512,72.72 C130.2,72.72 132.624,72.06 134.784,70.74 C136.944,69.42 138.432,67.896 139.248,66.168 L139.248,66.168 L139.392,72 L146.808,72 L146.808,19.08 L139.176,19.08 L139.176,39.456 L139.536,45.072 C138.72,43.152 137.16,41.508 134.856,40.14 C132.552,38.772 130.008,38.088 127.224,38.088 C122.232,38.088 118.272,39.66 115.344,42.804 C112.416,45.948 110.952,50.136 110.952,55.368 C110.952,58.872 111.708,61.932 113.22,64.548 C114.732,67.164 116.748,69.18 119.268,70.596 C121.788,72.012 124.536,72.72 127.512,72.72 Z M128.808,66.168 C125.688,66.168 123.3,65.172 121.644,63.18 C119.988,61.188 119.16,58.584 119.16,55.368 C119.16,52.2 120,49.62 121.68,47.628 C123.36,45.636 125.736,44.64 128.808,44.64 C130.584,44.64 132.216,45.096 133.704,46.008 C135.192,46.92 136.368,48.192 137.232,49.824 C138.096,51.456 138.528,53.304 138.528,55.368 L138.528,55.368 L138.528,55.872 C138.528,58.944 137.592,61.428 135.72,63.324 C133.848,65.22 131.544,66.168 128.808,66.168 Z M161.64,32.76 C163.128,32.76 164.364,32.256 165.348,31.248 C166.332,30.24 166.824,28.992 166.824,27.504 C166.824,26.16 166.32,25.008 165.312,24.048 C164.304,23.088 163.08,22.608 161.64,22.608 C160.152,22.608 158.904,23.088 157.896,24.048 C156.888,25.008 156.384,26.16 156.384,27.504 C156.384,28.992 156.888,30.24 157.896,31.248 C158.904,32.256 160.152,32.76 161.64,32.76 Z M165.744,72 L165.744,38.952 L157.68,38.952 L157.68,72 L165.744,72 Z M187.272,72 L187.272,45.288 L194.904,45.288 L194.904,38.952 L187.272,38.952 L187.272,23.76 L179.424,25.488 L179.424,38.952 L173.592,38.952 L173.592,45.288 L179.424,45.288 L179.424,72 L187.272,72 Z M331.632,72.504 C334.512,72.504 337.356,72.06 340.164,71.172 C342.972,70.284 344.904,69.36 345.96,68.4 L345.96,68.4 L343.584,61.56 C339.648,63.96 335.568,65.16 331.344,65.16 C327.696,65.16 324.552,64.296 321.912,62.568 C319.272,60.84 317.268,58.488 315.9,55.512 C314.532,52.536 313.848,49.224 313.848,45.576 C313.848,41.592 314.616,38.088 316.152,35.064 C317.688,32.04 319.8,29.712 322.488,28.08 C325.176,26.448 328.176,25.632 331.488,25.632 C336.192,25.632 340.008,26.928 342.936,29.52 L342.936,29.52 L346.464,22.32 C346.032,21.888 345.144,21.348 343.8,20.7 C342.456,20.052 340.764,19.476 338.724,18.972 C336.684,18.468 334.488,18.216 332.136,18.216 C326.904,18.216 322.224,19.38 318.096,21.708 C313.968,24.036 310.764,27.264 308.484,31.392 C306.204,35.52 305.064,40.2 305.064,45.432 C305.064,50.376 306.12,54.9 308.232,59.004 C310.344,63.108 313.404,66.384 317.412,68.832 C321.42,71.28 326.16,72.504 331.632,72.504 Z M368.424,72.72 C371.112,72.72 373.536,72.06 375.696,70.74 C377.856,69.42 379.344,67.896 380.16,66.168 L380.16,66.168 L380.304,72 L387.648,72 L387.648,38.952 L380.232,38.952 L380.088,44.496 C379.704,43.536 378.936,42.564 377.784,41.58 C376.632,40.596 375.216,39.768 373.536,39.096 C371.856,38.424 370.056,38.088 368.136,38.088 C364.824,38.088 361.944,38.808 359.496,40.248 C357.048,41.688 355.164,43.704 353.844,46.296 C352.524,48.888 351.864,51.912 351.864,55.368 C351.864,58.872 352.62,61.932 354.132,64.548 C355.644,67.164 357.66,69.18 360.18,70.596 C362.7,72.012 365.448,72.72 368.424,72.72 Z M369.72,66.24 C366.6,66.24 364.212,65.244 362.556,63.252 C360.9,61.26 360.072,58.656 360.072,55.44 C360.072,52.272 360.912,49.692 362.592,47.7 C364.272,45.708 366.648,44.712 369.72,44.712 C371.496,44.712 373.128,45.168 374.616,46.08 C376.104,46.992 377.28,48.264 378.144,49.896 C379.008,51.528 379.44,53.376 379.44,55.44 L379.44,55.44 L379.44,55.944 C379.44,59.016 378.504,61.5 376.632,63.396 C374.76,65.292 372.456,66.24 369.72,66.24 Z M406.44,72 L406.44,19.08 L398.736,19.08 L398.736,72 L406.44,72 Z M432.792,72.72 C435.096,72.72 437.196,72.396 439.092,71.748 C440.988,71.1 442.464,70.368 443.52,69.552 L443.52,69.552 L440.712,64.08 C439.944,64.656 438.852,65.16 437.436,65.592 C436.02,66.024 434.568,66.24 433.08,66.24 C430.104,66.24 427.788,65.256 426.132,63.288 C424.476,61.32 423.648,58.56 423.648,55.008 C423.648,51.888 424.452,49.392 426.06,47.52 C427.668,45.648 430.008,44.712 433.08,44.712 C435.624,44.712 437.904,45.72 439.92,47.736 L439.92,47.736 L443.376,41.472 C442.32,40.512 440.868,39.708 439.02,39.06 C437.172,38.412 434.976,38.088 432.432,38.088 C429.072,38.088 426.108,38.784 423.54,40.176 C420.972,41.568 418.98,43.548 417.564,46.116 C416.148,48.684 415.44,51.672 415.44,55.08 C415.44,58.68 416.208,61.812 417.744,64.476 C419.28,67.14 421.356,69.18 423.972,70.596 C426.588,72.012 429.528,72.72 432.792,72.72 Z" id="path-1"></path>
    </defs>
    <g id="Credit-Calc-Design" stroke="none" stroke-width="1" fill="none" fill-rule="evenodd">
        <g id="Web" transform="translate(-499.000000, -47.000000)" fill-rule="nonzero">
            <g id="Group" transform="translate(499.136000, 31.000000)">
                <g id="CreditCalc">
                    <use fill="#2A2A2A" xlink:href="#path-1"></use>
                    <use fill="#F0F0F0" xlink:href="#path-1"></use>
                </g>
                <g id="entypo-wallet" transform="translate(248.864000, 43.000000) rotate(-60.000000) translate(-248.864000, -43.000000) translate(217.864000, 12.000000)">
                    <g id="Icon" transform="translate(6.000000, 7.000000)" fill="#FFFFFF">
                        <path d="M43.6,11.6 L4.85,11.6 L4.85,10.05 L38.95,7.322 L38.95,10.05 L43.6,10.05 L43.6,5.4 C43.6,1.99 40.8379,-0.4032 37.4651,0.0773 L6.338,4.5227 C2.9621,5.0063 0.2,8.19 0.2,11.6 L0.2,42.6 C0.2,46.0241654 2.97583455,48.8 6.4,48.8 L43.6,48.8 C47.0241654,48.8 49.8,46.0241654 49.8,42.6 L49.8,17.8 C49.8,14.3758346 47.0241654,11.6 43.6,11.6 Z M38.95,33.3186003 C37.2881612,33.3180463 35.7528543,32.4309542 34.9224144,30.9914827 C34.0919746,29.5520112 34.0925654,27.7788503 34.9239644,26.3399326 C35.7553634,24.9010149 37.2912612,24.0149462 38.9531,24.0154997 C41.5220801,24.0163561 43.6039559,26.0996199 43.6031001,28.6686 C43.6022438,31.2375801 41.5189801,33.319456 38.95,33.3186003 L38.95,33.3186003 Z" id="Icon-Shape"></path>
                    </g>
                    <rect id="ViewBox" x="0" y="0" width="62" height="62"></rect>
                </g>
            </g>
        </g>
    </g>
</svg>